<?xml version="1.0" encoding="UTF-8"?>
<svg xmlns="http://www.w3.org/2000/svg" xmlns:xlink="http://www.w3.org/1999/xlink" width="249px" height="163px" viewBox="0 0 248 163" version="1.1">
<g id="surface1">
<path style=" stroke:none;fill-rule:nonzero;fill:rgb(0%,0%,0%);fill-opacity:1;" d="M 0 81.539062 L 0 163.078125 L 248 163.078125 L 248 0 L 0 0 Z M 133.375 31.847656 C 134.867188 32.308594 137.433594 33.421875 139.117188 34.265625 C 147.535156 38.601562 155.804688 51.761719 151.363281 53.796875 C 149.449219 54.640625 148.683594 53.988281 146.617188 49.765625 C 143.175781 42.707031 138.007812 38.484375 130.316406 36.492188 C 128.09375 35.875 121.511719 35.992188 118.71875 36.644531 C 108.460938 39.0625 101.839844 48.003906 101.800781 59.511719 C 101.800781 66.152344 104.023438 71.675781 108.5 76.203125 C 112.863281 80.617188 117.992188 82.613281 124.765625 82.613281 C 129.359375 82.613281 131.769531 82.074219 135.710938 80.15625 C 140.839844 77.664062 145.085938 73.171875 146.964844 68.222656 C 148.265625 64.847656 150.332031 63.617188 151.9375 65.230469 C 153.011719 66.304688 152.894531 67.878906 151.554688 70.832031 C 148.570312 77.472656 142.21875 83.609375 135.941406 85.949219 C 130.390625 88.023438 123.539062 88.558594 117.875 87.292969 C 114.011719 86.410156 108.613281 83.765625 105.898438 81.308594 C 99.621094 75.707031 95.984375 66.382812 96.597656 57.363281 C 96.867188 52.761719 97.632812 50.035156 99.773438 45.660156 C 101.226562 42.59375 102.070312 41.480469 104.824219 38.753906 C 109.074219 34.496094 113.589844 32.117188 119.332031 31.082031 C 122.621094 30.464844 130.390625 30.886719 133.375 31.847656 Z M 184.851562 32.039062 C 188.335938 32.691406 190.554688 33.382812 191.742188 34.1875 C 193.464844 35.339844 192.351562 38.753906 190.25 38.753906 C 189.902344 38.753906 188.601562 38.410156 187.339844 38.027344 C 183.207031 36.722656 179.492188 36.300781 176.625 36.796875 C 173.253906 37.410156 171.648438 38.257812 169.503906 40.558594 C 166.40625 43.859375 165.332031 49.535156 167.132812 53.335938 C 168.738281 56.789062 171.1875 58.632812 178.382812 61.816406 C 184.46875 64.464844 186 66.152344 186 70.105469 C 186 74.976562 181.367188 77.96875 174.976562 77.277344 C 170.421875 76.820312 164.183594 74.441406 162.425781 72.484375 C 161.085938 71.023438 162.117188 68.300781 164.03125 68.300781 C 164.53125 68.300781 166.023438 68.914062 167.324219 69.644531 C 170.347656 71.292969 173.5625 72.136719 176.816406 72.136719 C 179.648438 72.136719 181.023438 71.445312 181.023438 70.066406 C 181.023438 68.761719 180.03125 68.070312 175.4375 66.113281 C 168.203125 63.082031 164.875 60.394531 162.65625 55.867188 C 160.089844 50.648438 160.742188 43.742188 164.300781 38.90625 C 166.40625 36.03125 168.011719 34.6875 170.921875 33.304688 C 174.902344 31.425781 179.457031 31.003906 184.851562 32.039062 Z M 91.164062 32.5 C 92.003906 33.269531 92.042969 35.1875 91.203125 36.144531 C 90.628906 36.796875 89.515625 36.835938 72.066406 36.835938 C 54.078125 36.835938 53.542969 36.796875 52.816406 36.070312 C 52.394531 35.648438 52.050781 34.878906 52.050781 34.34375 C 52.050781 33.804688 52.394531 33.039062 52.816406 32.617188 C 53.542969 31.886719 54.078125 31.847656 72.027344 31.847656 C 88.636719 31.847656 90.511719 31.925781 91.164062 32.5 Z M 129.320312 41.632812 C 138.3125 43.78125 144.398438 53.066406 142.828125 62.238281 C 140.265625 77.203125 121.972656 82.84375 111.984375 71.714844 C 108.804688 68.183594 108.421875 65.769531 110.835938 64.847656 C 112.328125 64.269531 113.09375 64.65625 114.660156 66.804688 C 117.226562 70.296875 120.863281 72.214844 124.957031 72.214844 C 132.035156 72.253906 137.28125 67.148438 137.703125 59.859375 C 137.929688 55.828125 136.859375 53.144531 133.988281 50.226562 C 131.082031 47.351562 128.402344 46.277344 124.382812 46.503906 C 120.097656 46.773438 117.761719 48.117188 113.972656 52.53125 C 112.328125 54.449219 110.988281 54.5625 109.726562 52.875 C 108.960938 51.839844 108.960938 51.800781 109.648438 50.226562 C 110.605469 48.15625 114.125 44.585938 116.574219 43.28125 C 120.554688 41.132812 124.804688 40.597656 129.320312 41.632812 Z M 68.851562 42.820312 C 69.65625 43.820312 69.65625 44.203125 69.65625 64.578125 L 69.65625 85.335938 L 68.8125 86.21875 C 67.816406 87.292969 66.59375 87.332031 65.40625 86.375 L 64.488281 85.644531 L 64.371094 66.226562 L 64.257812 46.8125 L 59.015625 46.8125 C 54.882812 46.8125 53.582031 46.699219 52.890625 46.199219 C 51.820312 45.429688 51.78125 43.859375 52.890625 42.707031 C 53.695312 41.863281 53.886719 41.824219 60.890625 41.824219 L 68.085938 41.824219 Z M 91.164062 42.476562 C 92.003906 43.242188 92.042969 45.164062 91.203125 46.121094 C 90.664062 46.734375 89.9375 46.8125 85.078125 46.8125 L 79.605469 46.8125 L 79.605469 66.074219 C 79.605469 85.296875 79.605469 85.335938 78.761719 86.21875 C 77.769531 87.292969 76.429688 87.371094 75.394531 86.335938 C 74.628906 85.566406 74.628906 85.070312 74.628906 64.464844 C 74.628906 43.859375 74.628906 43.359375 75.394531 42.59375 C 76.121094 41.863281 76.65625 41.824219 83.316406 41.824219 C 89.402344 41.824219 90.550781 41.902344 91.164062 42.476562 Z M 185.347656 42.4375 C 189.175781 43.398438 191.128906 44.511719 191.28125 45.777344 C 191.359375 46.390625 191.128906 47.3125 190.785156 47.847656 C 190.019531 48.960938 189.0625 48.921875 184.660156 47.617188 C 179.992188 46.199219 176.433594 46.773438 176.433594 48.882812 C 176.433594 50.074219 177.390625 50.839844 180.296875 52.03125 C 187.492188 54.949219 192.390625 58.554688 194.648438 62.621094 C 195.722656 64.617188 195.757812 64.808594 195.757812 70.027344 C 195.757812 75.207031 195.722656 75.476562 194.648438 77.703125 C 190.632812 85.914062 181.140625 89.175781 169.351562 86.375 C 164.796875 85.296875 161.085938 83.417969 160.585938 82 C 160.28125 81.15625 160.359375 80.769531 161.007812 79.886719 C 162.082031 78.46875 162.960938 78.429688 165.984375 79.773438 C 169.925781 81.5 173.179688 82.230469 177.007812 82.230469 C 182.707031 82.265625 186.804688 80.539062 189.101562 77.125 C 190.554688 74.9375 191.128906 72.90625 191.128906 69.644531 C 191.167969 64.347656 188.871094 61.816406 180.257812 57.671875 C 173.867188 54.5625 173.21875 54.140625 172.296875 52.375 C 170.269531 48.460938 171.609375 44.320312 175.476562 42.554688 C 177.425781 41.632812 182.058594 41.59375 185.347656 42.4375 Z M 129.894531 98.078125 C 132.382812 98.765625 135.097656 100.570312 137.128906 102.796875 C 144.742188 111.3125 141.910156 124.359375 131.273438 129.464844 C 128.976562 130.578125 128.476562 130.652344 124.765625 130.652344 C 121.054688 130.652344 120.554688 130.578125 118.144531 129.425781 C 114.507812 127.699219 111.332031 124.550781 109.535156 120.90625 C 108.347656 118.488281 108.078125 117.570312 107.964844 114.996094 C 107.734375 109.855469 109.496094 105.519531 113.320312 101.875 C 117.800781 97.617188 123.539062 96.273438 129.894531 98.078125 Z M 129.894531 98.078125 "/>
</g>
</svg>
